
<svg xmlns="http://www.w3.org/2000/svg" version="1.1" xmlns:xlink="http://www.w3.org/1999/xlink" preserveAspectRatio="none" x="0px" y="0px" width="1280px" height="720px" viewBox="0 0 1280 720">
<defs>
<g id="Layer0_0_FILL">
<path fill="#169199" stroke="none" d="
M 1280 720
L 1280 0 0 0 0 720 1280 720 Z"/>
</g>

<g id="Layer0_1_FILL">
<path fill="#FFFFFF" stroke="none" d="
M 165.8 419.65
Q 170.95 423.1 222.5 423.15 278.55 424.75 306 444.2 274.5 405.6 215.6 405.5 173.4 405.6 141.3 397.4 151.05 412 165.8 419.65
M 102.95 375.2
Q 76.45 317.8 160.45 270.3 -7.55 278 0.35 415.8 13.55 326.6 98.35 294.8 49.9 363 107.95 406.8 101.65 397.6 102.95 375.2
M 152 285.2
L 134.4 301.7
Q 210.1 295.05 234.4 333.1 140.3 303.35 116.4 361.45 99.45 405.85 144 431.2 174.9 451.55 228.15 449.5 175.95 439.6 150.5 420.05 118.65 394.15 134.85 361.8 145.65 341.3 177.55 339.2 225.15 336.05 261.95 356.05 236.2 280.4 152 285.2 Z"/>
</g>
</defs>

<g transform="matrix( 1, 0, 0, 1, 0,0) ">
<use xlink:href="#Layer0_0_FILL"/>
</g>

<g transform="matrix( 1, 0, 0, 1, 487,0) ">
<use xlink:href="#Layer0_1_FILL"/>
</g>
</svg>
