
<svg xmlns="http://www.w3.org/2000/svg" version="1.1" xmlns:xlink="http://www.w3.org/1999/xlink" preserveAspectRatio="none" x="0px" y="0px" width="711px" height="284px" viewBox="0 0 711 284">
<defs>
<g id="Layer0_0_MEMBER_0_FILL">
<path fill="#FFFFFF" stroke="none" d="
M 77.15 103.55
L 56.2 103.55 56.2 204.55 77.15 204.55 77.15 103.55
M 169.6 127.25
Q 176.25 134.5 176.25 147.95
L 176.25 204.55 197.1 204.55 197.1 144.9
Q 197.1 124.55 186 113.2 174.85 101.8 157.8 101.8 135.65 101.8 125.5 119.4
L 125.5 103.55 104.6 103.55 104.6 204.55 125.5 204.55 125.5 147.95
Q 125.5 134.5 132.4 127.25 139.3 119.95 151.05 119.95 162.8 119.95 169.6 127.25
M 229.9 110.7
Q 219.1 119.6 219.1 132.4 219.1 142.5 225.1 148.55 231.2 154.65 239.9 156.95
L 257.3 160.95
Q 266.1 162.7 272.15 166.2 278.15 169.65 278.15 175.95 278.15 182.2 273.2 185.9 268 189.65 259.5 189.65 251 189.65 246.05 185.45 241.05 181.25 240.6 173.75
L 218.9 173.75
Q 220.05 189.35 230.75 197.75 241.65 206.15 259.15 206.15 276.5 206.15 287.6 197.95 298.7 189.65 298.7 176.55 298.7 165.85 292.7 159.45 286.65 153.25 277.95 150.85
L 260.45 146.75
Q 251.75 145.1 245.65 141.65 239.65 138.15 239.65 132 239.65 125.8 244.4 122.05 249.2 118.25 257.6 118.25 266.1 118.25 270.8 122.55 275.4 126.75 275.95 134.3
L 297.45 134.3
Q 296.7 119.3 286.35 110.5 275.95 101.8 258.35 101.8 240.8 101.8 229.9 110.7
M 466.9 103.55
L 446 103.55 446 204.55 466.9 204.55 466.9 103.55
M 342.55 121.4
L 342.55 103.55 321.65 103.55 321.65 252.6 342.55 252.6 342.55 185.65
Q 347.8 195.1 356.9 200.65 365.9 206.15 377.75 206.15 398 206.15 411.65 191.45 425.35 176.65 425.35 153.7 425.35 130.65 411.75 116.25 398.2 101.8 377.75 101.8 365.9 101.8 356.8 107.25 347.65 112.6 342.55 121.4
M 373.25 119.95
Q 385.85 119.95 394.95 128.95 404 137.95 404 153.6 404 169.2 394.85 178.55 385.65 188.1 373.15 188.1 360.75 188.1 351.65 178.75 342.55 169.45 342.55 153.9 342.55 138.3 351.65 129.15 360.75 119.95 373.25 119.95
M 545.55 123.5
L 545.55 101.8
Q 525 101.8 515.25 121
L 515.25 103.55 494.35 103.55 494.35 204.55 515.25 204.55 515.25 151.3
Q 515.25 135.95 521.6 129.6 527.9 123.5 540.2 123.5
L 545.55 123.5
M 656.7 161.05
L 657.5 151.1
Q 657.5 129.15 643.65 115.45 629.95 101.8 607.8 101.8 585.7 101.8 571.75 116.05 557.8 130.3 557.8 153.9 557.8 177.6 571.55 191.95 585.35 206.15 607.4 206.15 625.1 206.15 637.3 197.3 649.35 188.4 653.95 174.45
L 631.4 174.45
Q 624.4 188.6 607.4 188.6 595.65 188.6 587.8 181.15 580.05 173.75 579.2 161.05
L 656.7 161.05
M 627.4 126.85
Q 635.4 134.3 635.6 146.75
L 579.4 146.75
Q 580.55 134.3 588.4 126.85 596.2 119.4 607.7 119.4 619.25 119.4 627.4 126.85 Z"/>

<path fill="#FFFFFF" fill-opacity="0.8" stroke="none" d="
M 66.75 63.3
Q 61.2 63.3 57.35 67.1 53.45 70.95 53.45 76.65 53.45 82.3 57.35 86.25 61.2 90.05 66.75 90.05 72.4 90.05 76.2 86.25 80.1 82.3 80.1 76.65 80.1 70.95 76.2 67.1 72.4 63.3 66.75 63.3
M 456.5 63.3
Q 450.95 63.3 447.15 67.1 443.2 70.95 443.2 76.65 443.2 82.3 447.15 86.25 450.95 90.05 456.5 90.05 462.15 90.05 465.95 86.25 469.85 82.3 469.85 76.65 469.85 70.95 465.95 67.1 462.15 63.3 456.5 63.3 Z"/>
</g>

<path id="Layer0_0_MEMBER_1_1_STROKES" stroke="#FFFFFF" stroke-width="10" stroke-linejoin="miter" stroke-linecap="round" stroke-miterlimit="3" fill="none" d="
M 292.05 622.1
L 991 622.1 991 894.05 292.05 894.05 292.05 622.1 Z"/>
</defs>

<g transform="matrix( 1, 0, 0, 1, 0,0) ">
<use xlink:href="#Layer0_0_MEMBER_0_FILL"/>
</g>

<g transform="matrix( 1, 0, 0, 1, -286.05,-616.1) ">
<use xlink:href="#Layer0_0_MEMBER_1_1_STROKES"/>
</g>
</svg>
