
<svg xmlns="http://www.w3.org/2000/svg" version="1.1" xmlns:xlink="http://www.w3.org/1999/xlink" preserveAspectRatio="none" x="0px" y="0px" width="306px" height="237px" viewBox="0 0 306 237">
<defs>
<g id="Layer0_0_MEMBER_0_FILL">
<path fill="#169199" stroke="none" d="
M -373.1 -560.05
Q -379.4 -569.25 -378.1 -591.65 -404.6 -649.05 -320.6 -696.55 -488.6 -688.85 -480.7 -551.05 -467.5 -640.25 -382.7 -672.05 -431.15 -603.85 -373.1 -560.05
M -315.25 -547.2
Q -310.1 -543.75 -258.55 -543.7 -202.5 -542.1 -175.05 -522.65 -206.55 -561.25 -265.45 -561.35 -307.65 -561.25 -339.75 -569.45 -330 -554.85 -315.25 -547.2
M -303.5 -627.65
Q -255.9 -630.8 -219.1 -610.8 -244.85 -686.45 -329.05 -681.65
L -346.65 -665.15
Q -270.95 -671.8 -246.65 -633.75 -340.75 -663.5 -364.65 -605.4 -381.6 -561 -337.05 -535.65 -306.15 -515.3 -252.9 -517.35 -305.1 -527.25 -330.55 -546.8 -362.4 -572.7 -346.2 -605.05 -335.4 -625.55 -303.5 -627.65 Z"/>
</g>

<g id="Layer0_0_MEMBER_1_FILL">
<path fill="#424143" stroke="none" d="
M -462.95 -501.5
Q -469.45 -501.5 -473.45 -498.3 -477.65 -494.95 -477.65 -489.05 -477.65 -484.2 -474.45 -481.25 -471.8 -478.75 -466.1 -476.9 -461.4 -475.4 -460.4 -474.85 -458.35 -473.65 -458.35 -471.2 -458.35 -467.1 -463.9 -467.1 -466.65 -467.1 -470.3 -468.65 -473.55 -470 -475.15 -471.45
L -479 -464.7
Q -472.55 -459.7 -463.95 -459.7 -457 -459.7 -452.75 -462.9 -448.3 -466.25 -448.3 -472.2 -448.3 -477.65 -452.4 -480.8 -455.15 -482.9 -461.9 -484.95 -467.8 -486.65 -467.8 -490.1 -467.8 -494 -462.35 -494 -456.95 -494 -452.15 -490.45 -448.35 -495.3 -452.65 -499.45 -457 -501.5 -462.95 -501.5
M -325.55 -511.85
Q -325.55 -518.8 -335.4 -518.8
L -335.4 -460.95 -325.55 -460.95 -325.55 -511.85
M -341.9 -511.85
Q -341.9 -518.8 -351.75 -518.8
L -351.75 -460.95 -341.9 -460.95 -341.9 -511.85
M -392.6 -499.75
L -401.9 -499.75 -408.3 -473.45 -416.25 -499.75 -424.2 -499.75 -432.2 -473.45 -437.65 -495.85
Q -438.9 -500.8 -444.2 -500.8 -446 -500.8 -448.9 -500.05
L -437.5 -460.95 -428.1 -460.95 -420.7 -485.9 -413.2 -460.95 -403.9 -460.95 -392.6 -499.75
M -373.05 -501.5
Q -381.95 -501.5 -387.3 -495.45 -392.4 -489.65 -392.4 -480.5 -392.4 -471.2 -387.9 -465.75 -382.9 -459.7 -373.3 -459.7 -368.05 -459.7 -363.4 -462.1 -359.7 -464 -357.6 -466.65
L -362.6 -472
Q -366.8 -467 -372.7 -467 -377.25 -467 -379.75 -470 -382.15 -472.95 -382.25 -478.15
L -356.5 -478.15 -356.4 -483.6
Q -356.4 -491.3 -360.65 -496.25 -365.25 -501.5 -373.05 -501.5
M -381.85 -485.1
Q -381.05 -494.4 -373.6 -494.4 -366.5 -494.4 -366.05 -485.1
L -381.85 -485.1
M -247.8 -496.25
Q -252.35 -501.5 -260.15 -501.5 -269.1 -501.5 -274.4 -495.45 -279.55 -489.65 -279.55 -480.5 -279.55 -471.2 -275.05 -465.75 -270.05 -459.7 -260.4 -459.7 -255.15 -459.7 -250.55 -462.1 -246.85 -464 -244.7 -466.65
L -249.75 -472
Q -253.95 -467 -259.8 -467 -264.35 -467 -266.9 -470 -269.3 -472.95 -269.35 -478.15
L -243.6 -478.15 -243.55 -483.6
Q -243.55 -491.3 -247.8 -496.25
M -260.75 -494.4
Q -253.65 -494.4 -253.2 -485.1
L -269 -485.1
Q -268.2 -494.4 -260.75 -494.4
M -297.85 -501.5
Q -305.35 -501.5 -309.5 -495.85 -310.7 -498.85 -312.9 -499.9 -314.7 -500.8 -318.55 -500.8
L -318.55 -460.95 -308.6 -460.95 -308.6 -488.9
Q -307.5 -490.8 -305.3 -492.2 -302.95 -493.75 -300.65 -493.75 -294.1 -493.75 -294.1 -485.9
L -294.1 -460.95 -284.15 -460.95 -284.15 -486.45
Q -284.15 -501.5 -297.85 -501.5
M -227.65 -499.75
L -227.65 -508.45
Q -227.65 -515.4 -237.6 -515.4
L -237.6 -499.75 -243.75 -499.75 -243.75 -492.85 -237.6 -492.85 -237.6 -470.9
Q -237.6 -459.7 -226.2 -459.7 -220.25 -459.7 -214.75 -463.1
L -217.3 -469.4
Q -220.8 -467.15 -223.85 -467.15 -227.65 -467.15 -227.65 -471.65
L -227.65 -492.85 -218.15 -492.85 -218.15 -499.75 -227.65 -499.75 Z"/>
</g>
</defs>

<g transform="matrix( 1, 0, 0, 1, 481.05,696.55) ">
<use xlink:href="#Layer0_0_MEMBER_0_FILL"/>
</g>

<g transform="matrix( 1, 0, 0, 1, 481.05,696.55) ">
<use xlink:href="#Layer0_0_MEMBER_1_FILL"/>
</g>
</svg>
