
<svg xmlns="http://www.w3.org/2000/svg" version="1.1" xmlns:xlink="http://www.w3.org/1999/xlink" preserveAspectRatio="none" x="0px" y="0px" width="306px" height="180px" viewBox="0 0 306 180">
<defs>
<g id="Layer0_0_FILL">
<path fill="#FFFFFF" stroke="none" d="
M 107.95 136.5
Q 101.65 127.3 102.95 104.9 76.45 47.5 160.45 0 -7.55 7.7 0.35 145.5 13.55 56.3 98.35 24.5 49.9 92.7 107.95 136.5
M 177.55 68.9
Q 225.15 65.75 261.95 85.75 236.2 10.1 152 14.9
L 134.4 31.4
Q 210.1 24.75 234.4 62.8 140.3 33.05 116.4 91.15 99.45 135.55 144 160.9 174.9 181.25 228.15 179.2 175.95 169.3 150.5 149.75 118.65 123.85 134.85 91.5 145.65 71 177.55 68.9
M 165.8 149.35
Q 170.95 152.8 222.5 152.85 278.55 154.45 306 173.9 274.5 135.3 215.6 135.2 173.4 135.3 141.3 127.1 151.05 141.7 165.8 149.35 Z"/>
</g>
</defs>

<g transform="matrix( 1, 0, 0, 1, 0,0) ">
<use xlink:href="#Layer0_0_FILL"/>
</g>
</svg>
