
<svg xmlns="http://www.w3.org/2000/svg" version="1.1" xmlns:xlink="http://www.w3.org/1999/xlink" preserveAspectRatio="none" x="0px" y="0px" width="306px" height="237px" viewBox="0 0 306 237">
<defs>
<g id="Layer0_0_MEMBER_0_FILL">
<path fill="#169199" stroke="none" d="
M 107.95 136.5
Q 101.65 127.3 102.95 104.9 76.45 47.5 160.45 0 -7.55 7.7 0.35 145.5 13.55 56.3 98.35 24.5 49.9 92.7 107.95 136.5
M 177.55 68.9
Q 225.15 65.75 261.95 85.75 236.2 10.1 152 14.9
L 134.4 31.4
Q 210.1 24.75 234.4 62.8 140.3 33.05 116.4 91.15 99.45 135.55 144 160.9 174.9 181.25 228.15 179.2 175.95 169.3 150.5 149.75 118.65 123.85 134.85 91.5 145.65 71 177.55 68.9
M 165.8 149.35
Q 170.95 152.8 222.5 152.85 278.55 154.45 306 173.9 274.5 135.3 215.6 135.2 173.4 135.3 141.3 127.1 151.05 141.7 165.8 149.35 Z"/>
</g>

<g id="Layer0_0_MEMBER_1_FILL">
<path fill="#FFFFFF" stroke="none" d="
M 237.45 218.4
L 237.5 212.95
Q 237.5 205.25 233.25 200.3 228.7 195.05 220.9 195.05 211.95 195.05 206.65 201.1 201.5 206.9 201.5 216.05 201.5 225.35 206 230.8 211 236.85 220.65 236.85 225.9 236.85 230.5 234.45 234.2 232.55 236.35 229.9
L 231.3 224.55
Q 227.1 229.55 221.25 229.55 216.7 229.55 214.15 226.55 211.75 223.6 211.7 218.4
L 237.45 218.4
M 212.05 211.45
Q 212.85 202.15 220.3 202.15 227.4 202.15 227.85 211.45
L 212.05 211.45
M 124.55 218.4
L 124.65 212.95
Q 124.65 205.25 120.4 200.3 115.8 195.05 108 195.05 99.1 195.05 93.75 201.1 88.65 206.9 88.65 216.05 88.65 225.35 93.15 230.8 98.15 236.85 107.75 236.85 113 236.85 117.65 234.45 121.35 232.55 123.45 229.9
L 118.45 224.55
Q 114.25 229.55 108.35 229.55 103.8 229.55 101.3 226.55 98.9 223.6 98.8 218.4
L 124.55 218.4
M 107.45 202.15
Q 114.55 202.15 115 211.45
L 99.2 211.45
Q 100 202.15 107.45 202.15
M 155.5 184.7
Q 155.5 177.75 145.65 177.75
L 145.65 235.6 155.5 235.6 155.5 184.7
M 139.15 184.7
Q 139.15 177.75 129.3 177.75
L 129.3 235.6 139.15 235.6 139.15 184.7
M 28.4 197.1
Q 24.05 195.05 18.1 195.05 11.6 195.05 7.6 198.25 3.4 201.6 3.4 207.5 3.4 212.35 6.6 215.3 9.25 217.8 14.95 219.65 19.65 221.15 20.65 221.7 22.7 222.9 22.7 225.35 22.7 229.45 17.15 229.45 14.4 229.45 10.75 227.9 7.5 226.55 5.9 225.1
L 2.05 231.85
Q 8.5 236.85 17.1 236.85 24.05 236.85 28.3 233.65 32.75 230.3 32.75 224.35 32.75 218.9 28.65 215.75 25.9 213.65 19.15 211.6 13.25 209.9 13.25 206.45 13.25 202.55 18.7 202.55 24.1 202.55 28.9 206.1 32.7 201.25 28.4 197.1
M 36.85 195.75
Q 35.05 195.75 32.15 196.5
L 43.55 235.6 52.95 235.6 60.35 210.65 67.85 235.6 77.15 235.6 88.45 196.8 79.15 196.8 72.75 223.1 64.8 196.8 56.85 196.8 48.85 223.1 43.4 200.7
Q 42.15 195.75 36.85 195.75
M 262.9 196.8
L 253.4 196.8 253.4 188.1
Q 253.4 181.15 243.45 181.15
L 243.45 196.8 237.3 196.8 237.3 203.7 243.45 203.7 243.45 225.65
Q 243.45 236.85 254.85 236.85 260.8 236.85 266.3 233.45
L 263.75 227.15
Q 260.25 229.4 257.2 229.4 253.4 229.4 253.4 224.9
L 253.4 203.7 262.9 203.7 262.9 196.8
M 168.15 196.65
Q 166.35 195.75 162.5 195.75
L 162.5 235.6 172.45 235.6 172.45 207.65
Q 173.55 205.75 175.75 204.35 178.1 202.8 180.4 202.8 186.95 202.8 186.95 210.65
L 186.95 235.6 196.9 235.6 196.9 210.1
Q 196.9 195.05 183.2 195.05 175.7 195.05 171.55 200.7 170.35 197.7 168.15 196.65 Z"/>
</g>
</defs>

<g transform="matrix( 1, 0, 0, 1, 0,0) ">
<use xlink:href="#Layer0_0_MEMBER_0_FILL"/>
</g>

<g transform="matrix( 1, 0, 0, 1, 0,0) ">
<use xlink:href="#Layer0_0_MEMBER_1_FILL"/>
</g>
</svg>
