
<svg xmlns="http://www.w3.org/2000/svg" version="1.1" xmlns:xlink="http://www.w3.org/1999/xlink" preserveAspectRatio="none" x="0px" y="0px" width="414px" height="514px" viewBox="0 0 414 514">
<defs>
<g id="Layer0_0_FILL">
<path fill="#27AE60" stroke="none" d="
M 1212.65 626
Q 1232.9 620.85 1253.1 613.9
L 1185.7 529.45
Q 1097.7 552 1018.85 510.4
L 935.1 613.9
Q 956.35 621.05 977.55 626.3 1096.1 655.65 1212.65 626
M 1165.4 504.05
Q 1183.1 499.95 1201.1 493.9
L 1095.1 343.95 990.1 493.9
Q 1006.8 500.1 1023.8 504.3 1092.2 520.95 1165.4 504.05
M 970.3 634.95
L 888.1 732.9
Q 1095.1 806.15 1302.1 732.9
L 1241 659.85
Q 1125.25 692.9 970.3 634.95 Z"/>

<path fill="#219452" stroke="none" d="
M 1241 659.85
L 1212.65 626
Q 1096.1 655.65 977.55 626.3
L 970.3 634.95
Q 1125.25 692.9 1241 659.85
M 1185.7 529.45
L 1165.4 504.05
Q 1092.2 520.95 1023.8 504.3
L 1018.85 510.4
Q 1097.7 552 1185.7 529.45 Z"/>

<path fill="#E74C3C" stroke="none" d="
M 1111.55 295.45
L 1095.1 256 1079.05 295.95 1037.6 299.35 1069.05 325.95 1058.55 366.95 1095.1 343.95 1131 367.45 1121.05 325.95 1151.95 299.55 1111.55 295.45 Z"/>
</g>
</defs>

<g transform="matrix( 1, 0, 0, 1, -888.1,-256) ">
<use xlink:href="#Layer0_0_FILL"/>
</g>
</svg>
