
<svg xmlns="http://www.w3.org/2000/svg" version="1.1" xmlns:xlink="http://www.w3.org/1999/xlink" preserveAspectRatio="none" x="0px" y="0px" width="750px" height="422px" viewBox="0 0 750 422">
<defs>
<g id="Layer0_0_FILL">
<path fill="#000000" stroke="none" d="
M 750 422
L 750 0 0 0 0 422 750 422
M 283.55 219.35
Q 284.15 219.8 284.5 220.45 284.9 221.1 284.9 222.1 284.9 223.2 284.5 224 284.1 224.8 283.45 225.35 282.75 225.85 281.9 226.1 281 226.4 280 226.4 278.7 226.4 277.4 225.9 276.15 225.4 275.35 224.45
L 277.1 222.9
Q 277.6 223.55 278.4 223.95 279.25 224.35 280.05 224.35
L 280.9 224.25
Q 281.3 224.15 281.65 223.9 282.05 223.65 282.25 223.3 282.45 222.9 282.45 222.35 282.45 221.85 282.2 221.5 281.95 221.15 281.55 220.85 281.15 220.6 280.55 220.45
L 278.15 219.55
Q 277.55 219.3 277.05 218.85 276.55 218.45 276.25 217.8 275.95 217.15 275.95 216.2 275.95 215.2 276.4 214.45 276.8 213.7 277.5 213.2 278.2 212.75 279.1 212.5 279.95 212.25 280.9 212.25 281.9 212.25 282.95 212.6 284 213 284.8 213.7
L 283.25 215.4
Q 282.85 214.9 282.15 214.6 281.5 214.25 280.75 214.25
L 279.95 214.35
Q 279.5 214.45 279.2 214.7 278.85 214.9 278.6 215.25 278.4 215.6 278.4 216.1 278.4 216.55 278.6 216.85 278.8 217.2 279.1 217.4 279.45 217.65 279.9 217.8
L 282.3 218.65
Q 283 218.9 283.55 219.35
M 286.65 221.45
Q 286.65 220.35 287 219.5 287.4 218.6 288.1 218 288.75 217.35 289.65 217 290.55 216.65 291.6 216.65 292.6 216.65 293.55 217 294.45 217.35 295.1 218 295.75 218.6 296.15 219.5 296.55 220.35 296.55 221.45 296.55 222.55 296.15 223.4 295.75 224.3 295.1 224.95 294.45 225.6 293.55 225.95 292.6 226.3 291.6 226.3 290.55 226.3 289.65 225.95 288.75 225.6 288.1 224.95 287.4 224.3 287 223.4 286.65 222.55 286.65 221.45
M 304.15 216.7
L 304.15 218.8 303.45 218.7
Q 302.65 218.7 302.2 219 301.7 219.3 301.45 219.7 301.2 220.1 301.1 220.5
L 301 221.15 301 226.05 298.7 226.05 298.7 216.95 300.9 216.95 300.9 218.45 300.95 218.45
Q 301.3 217.65 302 217.15 302.7 216.65 303.6 216.65
L 303.9 216.65 304.15 216.7
M 308.35 219.7
Q 308.1 220.1 308 220.5
L 307.9 221.15 307.9 226.05 305.6 226.05 305.6 216.95 307.8 216.95 307.8 218.45 307.85 218.45
Q 308.2 217.65 308.9 217.15 309.6 216.65 310.5 216.65
L 310.8 216.65 311.05 216.7 311.05 218.8 310.35 218.7
Q 309.55 218.7 309.1 219 308.6 219.3 308.35 219.7
M 311.15 216.95
L 313.65 216.95 316.2 223.55 316.25 223.55 318.55 216.95 320.9 216.95 316.6 228 316.05 229.1
Q 315.75 229.6 315.35 229.95 314.95 230.25 314.4 230.45 313.9 230.6 313.15 230.6
L 312.55 230.6 311.95 230.5 312.15 228.5 313 228.65 313.6 228.55
Q 313.85 228.45 314 228.3
L 314.3 227.85 315.05 226.05 311.15 216.95
M 320.65 228.45
L 322 223.4 324.2 223.4 322.6 228.45 320.65 228.45
M 333.2 214.3
L 333.2 216.95 335.5 216.95 335.5 218.75 333.2 218.75 333.2 223
Q 333.2 223.6 333.4 224 333.65 224.4 334.4 224.4
L 334.9 224.35 335.35 224.2 335.45 226 333.9 226.25
Q 333 226.25 332.45 226 331.85 225.75 331.55 225.3 331.2 224.85 331.05 224.25 330.95 223.7 330.95 223
L 330.95 218.75 329.35 218.75 329.35 216.95 330.95 216.95 330.95 214.3 333.2 214.3
M 345.35 219
Q 345.55 219.65 345.55 220.35
L 345.55 226.05 343.25 226.05 343.2 220.2
Q 343.15 219.8 343 219.45 342.8 219.05 342.45 218.85 342.15 218.6 341.6 218.6 341.05 218.6 340.65 218.85 340.25 219.05 339.95 219.4 339.7 219.75 339.55 220.2 339.45 220.6 339.45 221.05
L 339.45 226.05 337.15 226.05 337.15 211.7 339.45 211.7 339.45 218.2 339.85 217.65 340.45 217.15
Q 340.8 216.95 341.25 216.8 341.7 216.65 342.2 216.65 343.1 216.65 343.7 217 344.35 217.3 344.75 217.8 345.2 218.3 345.35 219
M 347.65 221.55
Q 347.65 220.45 348 219.55 348.4 218.65 349.05 218 349.65 217.35 350.55 217 351.45 216.65 352.45 216.65 353.4 216.65 354.2 217 355.05 217.3 355.6 217.9 356.2 218.55 356.55 219.45 356.85 220.35 356.85 221.6
L 356.85 222.2 349.9 222.2
Q 349.95 222.7 350.2 223.1 350.4 223.55 350.75 223.8 351.1 224.1 351.55 224.3 352 224.45 352.5 224.45 353.4 224.45 353.95 224.15 354.55 223.8 354.95 223.3
L 356.45 224.5
Q 355.1 226.3 352.55 226.3 351.5 226.3 350.6 226 349.7 225.65 349.05 225.05 348.4 224.45 348 223.55 347.65 222.65 347.65 221.55
M 364.5 216.7
L 364.5 218.8 363.8 218.7
Q 363 218.7 362.55 219 362.05 219.3 361.8 219.7 361.55 220.1 361.45 220.5
L 361.35 221.15 361.35 226.05 359.05 226.05 359.05 216.95 361.25 216.95 361.25 218.45 361.3 218.45
Q 361.65 217.65 362.35 217.15 363.05 216.65 363.95 216.65
L 364.25 216.65 364.5 216.7
M 365.1 221.55
Q 365.1 220.45 365.45 219.55 365.85 218.65 366.5 218 367.1 217.35 368 217 368.9 216.65 369.9 216.65 370.85 216.65 371.65 217 372.5 217.3 373.05 217.9 373.65 218.55 374 219.45 374.3 220.35 374.3 221.6
L 374.3 222.2 367.35 222.2
Q 367.4 222.7 367.65 223.1 367.85 223.55 368.2 223.8 368.55 224.1 369 224.3 369.45 224.45 369.95 224.45 370.85 224.45 371.4 224.15 372 223.8 372.4 223.3
L 373.9 224.5
Q 372.55 226.3 370 226.3 368.95 226.3 368.05 226 367.15 225.65 366.5 225.05 365.85 224.45 365.45 223.55 365.1 222.65 365.1 221.55
M 378.8 217.6
L 376.85 217.6 376.85 212.6 378.8 212.6 378.8 217.6
M 384.95 216.65
Q 385.9 216.65 386.85 217 387.8 217.35 388.35 218.05
L 386.85 219.35
Q 386.55 218.95 386.05 218.65 385.5 218.4 384.85 218.4 384.3 218.4 383.85 218.6 383.4 218.85 383.4 219.35 383.4 219.9 383.9 220.1 384.4 220.35 385.4 220.55
L 386.4 220.85
Q 386.95 221.05 387.35 221.35 387.8 221.7 388.05 222.15 388.35 222.6 388.35 223.3 388.35 224.1 388 224.7 387.7 225.25 387.2 225.65 386.65 226 385.95 226.15 385.25 226.3 384.55 226.3 383.45 226.3 382.45 225.95 381.45 225.55 380.8 224.8
L 382.3 223.4
Q 382.65 223.9 383.25 224.2 383.9 224.55 384.6 224.55
L 385.15 224.5 385.6 224.3
Q 385.8 224.2 385.95 224 386.1 223.75 386.1 223.45 386.1 222.9 385.55 222.65 385.05 222.4 384 222.15
L 383 221.85
Q 382.5 221.7 382.15 221.4 381.75 221.1 381.55 220.65 381.3 220.2 381.3 219.55 381.3 218.8 381.6 218.25 381.95 217.7 382.45 217.35 382.95 217 383.6 216.85 384.25 216.65 384.95 216.65
M 395 216.95
L 397.2 216.95 397.2 218.4
Q 397.55 217.7 398.3 217.2 399.05 216.65 400.05 216.65 400.95 216.65 401.6 217 402.2 217.3 402.65 217.8 403.05 218.3 403.2 219 403.4 219.65 403.4 220.35
L 403.4 226.05 401.15 226.05 401.1 220.15
Q 401.05 219.7 400.85 219.35 400.65 219 400.3 218.8 400 218.55 399.45 218.55 398.85 218.55 398.45 218.8 398.1 219 397.8 219.35 397.55 219.7 397.45 220.15 397.3 220.6 397.3 221.05
L 397.3 226.05 395 226.05 395 216.95
M 405.55 221.45
Q 405.55 220.35 405.9 219.5 406.3 218.6 407 218 407.65 217.35 408.55 217 409.45 216.65 410.5 216.65 411.5 216.65 412.45 217 413.35 217.35 414 218 414.65 218.6 415.05 219.5 415.45 220.35 415.45 221.45 415.45 222.55 415.05 223.4 414.65 224.3 414 224.95 413.35 225.6 412.45 225.95 411.5 226.3 410.5 226.3 409.45 226.3 408.55 225.95 407.65 225.6 407 224.95 406.3 224.3 405.9 223.4 405.55 222.55 405.55 221.45
M 431.8 213.85
Q 431.8 213.3 432.2 212.9 432.6 212.45 433.2 212.45 433.85 212.45 434.3 212.85 434.7 213.25 434.7 213.85 434.7 214.45 434.3 214.8 433.85 215.2 433.2 215.2 432.6 215.2 432.2 214.8 431.8 214.4 431.8 213.85
M 432.1 216.95
L 434.4 216.95 434.4 226.05 432.1 226.05 432.1 216.95
M 428.35 216.95
L 430.75 216.95 427.1 226.05 424.7 226.05 421 216.95 423.5 216.95 425.9 223.6 428.35 216.95
M 446.4 211.7
L 446.4 226.05 444.2 226.05 444.2 224.7
Q 443.7 225.5 442.85 225.9 442 226.3 441.05 226.3 440 226.3 439.2 225.95 438.35 225.55 437.75 224.9 437.2 224.2 436.9 223.35 436.55 222.45 436.55 221.45 436.55 220.45 436.9 219.55 437.2 218.7 437.8 218.05 438.4 217.4 439.2 217.05 440.05 216.65 441 216.65 441.6 216.65 442.1 216.8
L 443 217.15 443.6 217.6 444.05 218.1 444.1 218.1 444.1 211.7 446.4 211.7
M 448.6 221.55
Q 448.6 220.45 448.95 219.55 449.35 218.65 450 218 450.6 217.35 451.5 217 452.4 216.65 453.4 216.65 454.35 216.65 455.15 217 456 217.3 456.55 217.9 457.15 218.55 457.5 219.45 457.8 220.35 457.8 221.6
L 457.8 222.2 450.85 222.2
Q 450.9 222.7 451.15 223.1 451.35 223.55 451.7 223.8 452.05 224.1 452.5 224.3 452.95 224.45 453.45 224.45 454.35 224.45 454.9 224.15 455.5 223.8 455.9 223.3
L 457.4 224.5
Q 456.05 226.3 453.5 226.3 452.45 226.3 451.55 226 450.65 225.65 450 225.05 449.35 224.45 448.95 223.55 448.6 222.65 448.6 221.55
M 467.95 218
Q 468.6 218.6 469 219.5 469.4 220.35 469.4 221.45 469.4 222.55 469 223.4 468.6 224.3 467.95 224.95 467.3 225.6 466.4 225.95 465.45 226.3 464.45 226.3 463.4 226.3 462.5 225.95 461.6 225.6 460.95 224.95 460.25 224.3 459.85 223.4 459.5 222.55 459.5 221.45 459.5 220.35 459.85 219.5 460.25 218.6 460.95 218 461.6 217.35 462.5 217 463.4 216.65 464.45 216.65 465.45 216.65 466.4 217 467.3 217.35 467.95 218
M 473.75 223.65
Q 474.2 224.05 474.2 224.7 474.2 225.3 473.75 225.75 473.3 226.15 472.65 226.15 472.35 226.15 472.1 226.05
L 471.6 225.75
Q 471.4 225.55 471.3 225.3 471.15 225 471.15 224.7 471.15 224.1 471.6 223.7 472.05 223.25 472.65 223.25 473.3 223.25 473.75 223.65
M 466.95 220.4
Q 466.75 219.85 466.45 219.45 466.1 219.05 465.65 218.8 465.15 218.55 464.45 218.55 463.75 218.55 463.25 218.8 462.75 219.05 462.45 219.45 462.15 219.85 461.95 220.4 461.8 220.9 461.8 221.45 461.8 222 461.95 222.5 462.15 223.05 462.45 223.45 462.75 223.9 463.25 224.15 463.75 224.4 464.45 224.4 465.15 224.4 465.65 224.15 466.1 223.9 466.45 223.45 466.75 223.05 466.95 222.5 467.1 222 467.1 221.45 467.1 220.9 466.95 220.4
M 455 219.05
Q 454.75 218.75 454.35 218.55 453.95 218.4 453.4 218.4 452.35 218.4 451.65 219 450.95 219.6 450.85 220.6
L 455.55 220.6
Q 455.55 220.15 455.4 219.75 455.3 219.35 455 219.05
M 439.05 220.4
Q 438.9 220.9 438.9 221.45 438.9 222 439.05 222.5 439.2 223.05 439.55 223.45 439.85 223.9 440.35 224.15 440.85 224.4 441.5 224.4 442.15 224.4 442.6 224.15 443.15 223.9 443.5 223.5 443.8 223.05 444 222.55 444.2 222 444.2 221.5 444.2 220.95 444 220.45 443.8 219.9 443.5 219.45 443.15 219.05 442.6 218.8 442.15 218.55 441.5 218.55 440.85 218.55 440.35 218.8 439.85 219.05 439.55 219.45 439.2 219.85 439.05 220.4
M 408 220.4
Q 407.85 220.9 407.85 221.45 407.85 222 408 222.5 408.2 223.05 408.5 223.45 408.8 223.9 409.3 224.15 409.8 224.4 410.5 224.4 411.2 224.4 411.7 224.15 412.15 223.9 412.5 223.45 412.8 223.05 413 222.5 413.15 222 413.15 221.45 413.15 220.9 413 220.4 412.8 219.85 412.5 219.45 412.15 219.05 411.7 218.8 411.2 218.55 410.5 218.55 409.8 218.55 409.3 218.8 408.8 219.05 408.5 219.45 408.2 219.85 408 220.4
M 368.15 219
Q 367.45 219.6 367.35 220.6
L 372.05 220.6
Q 372.05 220.15 371.9 219.75 371.8 219.35 371.5 219.05 371.25 218.75 370.85 218.55 370.45 218.4 369.9 218.4 368.85 218.4 368.15 219
M 354.05 219.05
Q 353.8 218.75 353.4 218.55 353 218.4 352.45 218.4 351.4 218.4 350.7 219 350 219.6 349.9 220.6
L 354.6 220.6
Q 354.6 220.15 354.45 219.75 354.35 219.35 354.05 219.05
M 292.8 218.8
Q 292.3 218.55 291.6 218.55 290.9 218.55 290.4 218.8 289.9 219.05 289.6 219.45 289.3 219.85 289.1 220.4 288.95 220.9 288.95 221.45 288.95 222 289.1 222.5 289.3 223.05 289.6 223.45 289.9 223.9 290.4 224.15 290.9 224.4 291.6 224.4 292.3 224.4 292.8 224.15 293.25 223.9 293.6 223.45 293.9 223.05 294.1 222.5 294.25 222 294.25 221.45 294.25 220.9 294.1 220.4 293.9 219.85 293.6 219.45 293.25 219.05 292.8 218.8 Z"/>
</g>

<g id="Layer0_1_FILL">
<path fill="#FFFFFF" stroke="none" d="
M 409.4 201
Q 407.8 201 407.05 202.4
L 390.75 232.25
Q 390 233.6 390.8 234.9 391.55 236.25 393.1 236.25
L 425.7 236.25
Q 427.25 236.25 428 234.9 428.8 233.6 428.05 232.25
L 411.8 202.4
Q 411 201 409.4 201
M 412.25 212.05
Q 412.45 212.2 412.45 212.45
L 412.05 222.2
Q 412.05 222.7 411.35 222.7
L 407.45 222.7
Q 406.7 222.7 406.7 222.2
L 406.35 212.5
Q 406.35 212.2 406.55 212.05 406.85 211.85 407.05 211.85
L 411.75 211.85
Q 411.95 211.85 412.25 212.05
M 412.1 230.15
Q 412.1 230.85 411.45 230.85
L 407.35 230.85
Q 406.7 230.85 406.7 230.15
L 406.7 226.1
Q 406.7 225.4 407.35 225.4
L 411.45 225.4
Q 412.1 225.4 412.1 226.1
L 412.1 230.15 Z"/>
</g>

<g id="Layer0_2_FILL">
<path fill="#FFFFFF" stroke="none" d="
M 322 223.4
L 320.65 228.45 322.6 228.45 324.2 223.4 322 223.4
M 287 219.5
Q 286.65 220.35 286.65 221.45 286.65 222.55 287 223.4 287.4 224.3 288.1 224.95 288.75 225.6 289.65 225.95 290.55 226.3 291.6 226.3 292.6 226.3 293.55 225.95 294.45 225.6 295.1 224.95 295.75 224.3 296.15 223.4 296.55 222.55 296.55 221.45 296.55 220.35 296.15 219.5 295.75 218.6 295.1 218 294.45 217.35 293.55 217 292.6 216.65 291.6 216.65 290.55 216.65 289.65 217 288.75 217.35 288.1 218 287.4 218.6 287 219.5
M 291.6 218.55
Q 292.3 218.55 292.8 218.8 293.25 219.05 293.6 219.45 293.9 219.85 294.1 220.4 294.25 220.9 294.25 221.45 294.25 222 294.1 222.5 293.9 223.05 293.6 223.45 293.25 223.9 292.8 224.15 292.3 224.4 291.6 224.4 290.9 224.4 290.4 224.15 289.9 223.9 289.6 223.45 289.3 223.05 289.1 222.5 288.95 222 288.95 221.45 288.95 220.9 289.1 220.4 289.3 219.85 289.6 219.45 289.9 219.05 290.4 218.8 290.9 218.55 291.6 218.55
M 284.9 222.1
Q 284.9 221.1 284.5 220.45 284.15 219.8 283.55 219.35 283 218.9 282.3 218.65
L 279.9 217.8
Q 279.45 217.65 279.1 217.4 278.8 217.2 278.6 216.85 278.4 216.55 278.4 216.1 278.4 215.6 278.6 215.25 278.85 214.9 279.2 214.7 279.5 214.45 279.95 214.35
L 280.75 214.25
Q 281.5 214.25 282.15 214.6 282.85 214.9 283.25 215.4
L 284.8 213.7
Q 284 213 282.95 212.6 281.9 212.25 280.9 212.25 279.95 212.25 279.1 212.5 278.2 212.75 277.5 213.2 276.8 213.7 276.4 214.45 275.95 215.2 275.95 216.2 275.95 217.15 276.25 217.8 276.55 218.45 277.05 218.85 277.55 219.3 278.15 219.55
L 280.55 220.45
Q 281.15 220.6 281.55 220.85 281.95 221.15 282.2 221.5 282.45 221.85 282.45 222.35 282.45 222.9 282.25 223.3 282.05 223.65 281.65 223.9 281.3 224.15 280.9 224.25
L 280.05 224.35
Q 279.25 224.35 278.4 223.95 277.6 223.55 277.1 222.9
L 275.35 224.45
Q 276.15 225.4 277.4 225.9 278.7 226.4 280 226.4 281 226.4 281.9 226.1 282.75 225.85 283.45 225.35 284.1 224.8 284.5 224 284.9 223.2 284.9 222.1
M 313.65 216.95
L 311.15 216.95 315.05 226.05 314.3 227.85 314 228.3
Q 313.85 228.45 313.6 228.55
L 313 228.65 312.15 228.5 311.95 230.5 312.55 230.6 313.15 230.6
Q 313.9 230.6 314.4 230.45 314.95 230.25 315.35 229.95 315.75 229.6 316.05 229.1
L 316.6 228 320.9 216.95 318.55 216.95 316.25 223.55 316.2 223.55 313.65 216.95
M 304.15 218.8
L 304.15 216.7 303.9 216.65 303.6 216.65
Q 302.7 216.65 302 217.15 301.3 217.65 300.95 218.45
L 300.9 218.45 300.9 216.95 298.7 216.95 298.7 226.05 301 226.05 301 221.15 301.1 220.5
Q 301.2 220.1 301.45 219.7 301.7 219.3 302.2 219 302.65 218.7 303.45 218.7
L 304.15 218.8
M 308 220.5
Q 308.1 220.1 308.35 219.7 308.6 219.3 309.1 219 309.55 218.7 310.35 218.7
L 311.05 218.8 311.05 216.7 310.8 216.65 310.5 216.65
Q 309.6 216.65 308.9 217.15 308.2 217.65 307.85 218.45
L 307.8 218.45 307.8 216.95 305.6 216.95 305.6 226.05 307.9 226.05 307.9 221.15 308 220.5
M 333.2 216.95
L 333.2 214.3 330.95 214.3 330.95 216.95 329.35 216.95 329.35 218.75 330.95 218.75 330.95 223
Q 330.95 223.7 331.05 224.25 331.2 224.85 331.55 225.3 331.85 225.75 332.45 226 333 226.25 333.9 226.25
L 335.45 226 335.35 224.2 334.9 224.35 334.4 224.4
Q 333.65 224.4 333.4 224 333.2 223.6 333.2 223
L 333.2 218.75 335.5 218.75 335.5 216.95 333.2 216.95
M 345.55 220.35
Q 345.55 219.65 345.35 219 345.2 218.3 344.75 217.8 344.35 217.3 343.7 217 343.1 216.65 342.2 216.65 341.7 216.65 341.25 216.8 340.8 216.95 340.45 217.15
L 339.85 217.65 339.45 218.2 339.45 211.7 337.15 211.7 337.15 226.05 339.45 226.05 339.45 221.05
Q 339.45 220.6 339.55 220.2 339.7 219.75 339.95 219.4 340.25 219.05 340.65 218.85 341.05 218.6 341.6 218.6 342.15 218.6 342.45 218.85 342.8 219.05 343 219.45 343.15 219.8 343.2 220.2
L 343.25 226.05 345.55 226.05 345.55 220.35
M 348 219.55
Q 347.65 220.45 347.65 221.55 347.65 222.65 348 223.55 348.4 224.45 349.05 225.05 349.7 225.65 350.6 226 351.5 226.3 352.55 226.3 355.1 226.3 356.45 224.5
L 354.95 223.3
Q 354.55 223.8 353.95 224.15 353.4 224.45 352.5 224.45 352 224.45 351.55 224.3 351.1 224.1 350.75 223.8 350.4 223.55 350.2 223.1 349.95 222.7 349.9 222.2
L 356.85 222.2 356.85 221.6
Q 356.85 220.35 356.55 219.45 356.2 218.55 355.6 217.9 355.05 217.3 354.2 217 353.4 216.65 352.45 216.65 351.45 216.65 350.55 217 349.65 217.35 349.05 218 348.4 218.65 348 219.55
M 350.7 219
Q 351.4 218.4 352.45 218.4 353 218.4 353.4 218.55 353.8 218.75 354.05 219.05 354.35 219.35 354.45 219.75 354.6 220.15 354.6 220.6
L 349.9 220.6
Q 350 219.6 350.7 219
M 378.8 212.6
L 376.85 212.6 376.85 217.6 378.8 217.6 378.8 212.6
M 365.45 219.55
Q 365.1 220.45 365.1 221.55 365.1 222.65 365.45 223.55 365.85 224.45 366.5 225.05 367.15 225.65 368.05 226 368.95 226.3 370 226.3 372.55 226.3 373.9 224.5
L 372.4 223.3
Q 372 223.8 371.4 224.15 370.85 224.45 369.95 224.45 369.45 224.45 369 224.3 368.55 224.1 368.2 223.8 367.85 223.55 367.65 223.1 367.4 222.7 367.35 222.2
L 374.3 222.2 374.3 221.6
Q 374.3 220.35 374 219.45 373.65 218.55 373.05 217.9 372.5 217.3 371.65 217 370.85 216.65 369.9 216.65 368.9 216.65 368 217 367.1 217.35 366.5 218 365.85 218.65 365.45 219.55
M 367.35 220.6
Q 367.45 219.6 368.15 219 368.85 218.4 369.9 218.4 370.45 218.4 370.85 218.55 371.25 218.75 371.5 219.05 371.8 219.35 371.9 219.75 372.05 220.15 372.05 220.6
L 367.35 220.6
M 364.5 218.8
L 364.5 216.7 364.25 216.65 363.95 216.65
Q 363.05 216.65 362.35 217.15 361.65 217.65 361.3 218.45
L 361.25 218.45 361.25 216.95 359.05 216.95 359.05 226.05 361.35 226.05 361.35 221.15 361.45 220.5
Q 361.55 220.1 361.8 219.7 362.05 219.3 362.55 219 363 218.7 363.8 218.7
L 364.5 218.8
M 397.2 216.95
L 395 216.95 395 226.05 397.3 226.05 397.3 221.05
Q 397.3 220.6 397.45 220.15 397.55 219.7 397.8 219.35 398.1 219 398.45 218.8 398.85 218.55 399.45 218.55 400 218.55 400.3 218.8 400.65 219 400.85 219.35 401.05 219.7 401.1 220.15
L 401.15 226.05 403.4 226.05 403.4 220.35
Q 403.4 219.65 403.2 219 403.05 218.3 402.65 217.8 402.2 217.3 401.6 217 400.95 216.65 400.05 216.65 399.05 216.65 398.3 217.2 397.55 217.7 397.2 218.4
L 397.2 216.95
M 386.85 219.35
L 388.35 218.05
Q 387.8 217.35 386.85 217 385.9 216.65 384.95 216.65 384.25 216.65 383.6 216.85 382.95 217 382.45 217.35 381.95 217.7 381.6 218.25 381.3 218.8 381.3 219.55 381.3 220.2 381.55 220.65 381.75 221.1 382.15 221.4 382.5 221.7 383 221.85
L 384 222.15
Q 385.05 222.4 385.55 222.65 386.1 222.9 386.1 223.45 386.1 223.75 385.95 224 385.8 224.2 385.6 224.3
L 385.15 224.5 384.6 224.55
Q 383.9 224.55 383.25 224.2 382.65 223.9 382.3 223.4
L 380.8 224.8
Q 381.45 225.55 382.45 225.95 383.45 226.3 384.55 226.3 385.25 226.3 385.95 226.15 386.65 226 387.2 225.65 387.7 225.25 388 224.7 388.35 224.1 388.35 223.3 388.35 222.6 388.05 222.15 387.8 221.7 387.35 221.35 386.95 221.05 386.4 220.85
L 385.4 220.55
Q 384.4 220.35 383.9 220.1 383.4 219.9 383.4 219.35 383.4 218.85 383.85 218.6 384.3 218.4 384.85 218.4 385.5 218.4 386.05 218.65 386.55 218.95 386.85 219.35
M 405.9 219.5
Q 405.55 220.35 405.55 221.45 405.55 222.55 405.9 223.4 406.3 224.3 407 224.95 407.65 225.6 408.55 225.95 409.45 226.3 410.5 226.3 411.5 226.3 412.45 225.95 413.35 225.6 414 224.95 414.65 224.3 415.05 223.4 415.45 222.55 415.45 221.45 415.45 220.35 415.05 219.5 414.65 218.6 414 218 413.35 217.35 412.45 217 411.5 216.65 410.5 216.65 409.45 216.65 408.55 217 407.65 217.35 407 218 406.3 218.6 405.9 219.5
M 407.85 221.45
Q 407.85 220.9 408 220.4 408.2 219.85 408.5 219.45 408.8 219.05 409.3 218.8 409.8 218.55 410.5 218.55 411.2 218.55 411.7 218.8 412.15 219.05 412.5 219.45 412.8 219.85 413 220.4 413.15 220.9 413.15 221.45 413.15 222 413 222.5 412.8 223.05 412.5 223.45 412.15 223.9 411.7 224.15 411.2 224.4 410.5 224.4 409.8 224.4 409.3 224.15 408.8 223.9 408.5 223.45 408.2 223.05 408 222.5 407.85 222 407.85 221.45
M 430.75 216.95
L 428.35 216.95 425.9 223.6 423.5 216.95 421 216.95 424.7 226.05 427.1 226.05 430.75 216.95
M 434.4 216.95
L 432.1 216.95 432.1 226.05 434.4 226.05 434.4 216.95
M 432.2 212.9
Q 431.8 213.3 431.8 213.85 431.8 214.4 432.2 214.8 432.6 215.2 433.2 215.2 433.85 215.2 434.3 214.8 434.7 214.45 434.7 213.85 434.7 213.25 434.3 212.85 433.85 212.45 433.2 212.45 432.6 212.45 432.2 212.9
M 446.4 226.05
L 446.4 211.7 444.1 211.7 444.1 218.1 444.05 218.1 443.6 217.6 443 217.15 442.1 216.8
Q 441.6 216.65 441 216.65 440.05 216.65 439.2 217.05 438.4 217.4 437.8 218.05 437.2 218.7 436.9 219.55 436.55 220.45 436.55 221.45 436.55 222.45 436.9 223.35 437.2 224.2 437.75 224.9 438.35 225.55 439.2 225.95 440 226.3 441.05 226.3 442 226.3 442.85 225.9 443.7 225.5 444.2 224.7
L 444.2 226.05 446.4 226.05
M 438.9 221.45
Q 438.9 220.9 439.05 220.4 439.2 219.85 439.55 219.45 439.85 219.05 440.35 218.8 440.85 218.55 441.5 218.55 442.15 218.55 442.6 218.8 443.15 219.05 443.5 219.45 443.8 219.9 444 220.45 444.2 220.95 444.2 221.5 444.2 222 444 222.55 443.8 223.05 443.5 223.5 443.15 223.9 442.6 224.15 442.15 224.4 441.5 224.4 440.85 224.4 440.35 224.15 439.85 223.9 439.55 223.45 439.2 223.05 439.05 222.5 438.9 222 438.9 221.45
M 474.2 224.7
Q 474.2 224.05 473.75 223.65 473.3 223.25 472.65 223.25 472.05 223.25 471.6 223.7 471.15 224.1 471.15 224.7 471.15 225 471.3 225.3 471.4 225.55 471.6 225.75
L 472.1 226.05
Q 472.35 226.15 472.65 226.15 473.3 226.15 473.75 225.75 474.2 225.3 474.2 224.7
M 448.95 219.55
Q 448.6 220.45 448.6 221.55 448.6 222.65 448.95 223.55 449.35 224.45 450 225.05 450.65 225.65 451.55 226 452.45 226.3 453.5 226.3 456.05 226.3 457.4 224.5
L 455.9 223.3
Q 455.5 223.8 454.9 224.15 454.35 224.45 453.45 224.45 452.95 224.45 452.5 224.3 452.05 224.1 451.7 223.8 451.35 223.55 451.15 223.1 450.9 222.7 450.85 222.2
L 457.8 222.2 457.8 221.6
Q 457.8 220.35 457.5 219.45 457.15 218.55 456.55 217.9 456 217.3 455.15 217 454.35 216.65 453.4 216.65 452.4 216.65 451.5 217 450.6 217.35 450 218 449.35 218.65 448.95 219.55
M 454.35 218.55
Q 454.75 218.75 455 219.05 455.3 219.35 455.4 219.75 455.55 220.15 455.55 220.6
L 450.85 220.6
Q 450.95 219.6 451.65 219 452.35 218.4 453.4 218.4 453.95 218.4 454.35 218.55
M 469 219.5
Q 468.6 218.6 467.95 218 467.3 217.35 466.4 217 465.45 216.65 464.45 216.65 463.4 216.65 462.5 217 461.6 217.35 460.95 218 460.25 218.6 459.85 219.5 459.5 220.35 459.5 221.45 459.5 222.55 459.85 223.4 460.25 224.3 460.95 224.95 461.6 225.6 462.5 225.95 463.4 226.3 464.45 226.3 465.45 226.3 466.4 225.95 467.3 225.6 467.95 224.95 468.6 224.3 469 223.4 469.4 222.55 469.4 221.45 469.4 220.35 469 219.5
M 466.45 219.45
Q 466.75 219.85 466.95 220.4 467.1 220.9 467.1 221.45 467.1 222 466.95 222.5 466.75 223.05 466.45 223.45 466.1 223.9 465.65 224.15 465.15 224.4 464.45 224.4 463.75 224.4 463.25 224.15 462.75 223.9 462.45 223.45 462.15 223.05 461.95 222.5 461.8 222 461.8 221.45 461.8 220.9 461.95 220.4 462.15 219.85 462.45 219.45 462.75 219.05 463.25 218.8 463.75 218.55 464.45 218.55 465.15 218.55 465.65 218.8 466.1 219.05 466.45 219.45 Z"/>
</g>
</defs>

<g transform="matrix( 1, 0, 0, 1, 0,0) ">
<use xlink:href="#Layer0_0_FILL"/>
</g>

<g transform="matrix( 1, 0, 0, 1, -34.4,-38.6) ">
<use xlink:href="#Layer0_1_FILL"/>
</g>

<g transform="matrix( 1, 0, 0, 1, 0,0) ">
<use xlink:href="#Layer0_2_FILL"/>
</g>
</svg>
