
<svg xmlns="http://www.w3.org/2000/svg" version="1.1" xmlns:xlink="http://www.w3.org/1999/xlink" preserveAspectRatio="none" x="0px" y="0px" width="607px" height="551px" viewBox="0 0 607 551">
<defs>
<g id="Layer0_0_FILL">
<path fill="#FFFFFF" stroke="none" d="
M 995.15 262.1
Q 989.15 256.1 980.65 256.1
L 414.65 256.1
Q 406.15 256.1 400.15 262.1 394.15 268.1 394.15 276.6
L 394.15 637.6
Q 394.15 646.1 400.15 652.1 406.15 658.1 414.65 658.1
L 567.2 658.1 567.2 787.2
Q 568.45 805.45 588.2 806.3 597.25 806.65 606.25 797.2
L 747.15 658.1 980.65 658.1
Q 989.15 658.1 995.15 652.1 1001.15 646.1 1001.15 637.6
L 1001.15 276.6
Q 1001.15 268.1 995.15 262.1 Z"/>
</g>
</defs>

<g transform="matrix( 1, 0, 0, 1, -394.15,-256.1) ">
<use xlink:href="#Layer0_0_FILL"/>
</g>
</svg>
