
<svg xmlns="http://www.w3.org/2000/svg" version="1.1" xmlns:xlink="http://www.w3.org/1999/xlink" preserveAspectRatio="none" x="0px" y="0px" width="350px" height="350px" viewBox="0 0 350 350">
<defs>
<g id="Layer2_0_FILL">
<path fill="#27272F" stroke="none" d="
M 298.75 51.25
Q 247.5 0 175 0 102.5 0 51.25 51.25 0 102.5 0 175 0 247.5 51.25 298.75 102.5 350 175 350 247.5 350 298.75 298.75 350 247.5 350 175 350 102.5 298.75 51.25
M 164.3 143.8
Q 168.1 141.9 172.7 141.9
L 271 141.9
Q 279 141.9 284.5 147.4 290.1 152.8 290.05 160.45 290.05 168.15 284.5 173.5 283.95 174.05 283.45 174.45
L 234.95 222.95
Q 234.65 223.35 234.25 223.75 228.85 229.15 221.05 229.05 213.25 228.95 207.7 223.4
L 158.65 174.35
Q 153.05 168.75 153 161 152.9 153.2 158.3 147.8 161 145.1 164.3 143.8
M 59 140.8
Q 59 132.85 64.4 127.3 69.85 121.75 77.5 121.75 81.3 121.75 84.55 123.15 88.6 124.5 91.85 127.75
L 161.4 197.3
Q 167 202.9 167.05 210.7 167.15 218.45 161.75 223.85 156.3 229.3 148.55 229.15 147.8 229.15 147.15 229.1
L 78.55 229.1
Q 78.05 229.15 77.5 229.15 69.85 229.15 64.4 223.6 59 218 59 210.15
L 59 140.8 Z"/>
</g>
</defs>

<g transform="matrix( 1, 0, 0, 1, 0,0) ">
<use xlink:href="#Layer2_0_FILL"/>
</g>
</svg>
