
<svg xmlns="http://www.w3.org/2000/svg" version="1.1" xmlns:xlink="http://www.w3.org/1999/xlink" preserveAspectRatio="none" x="0px" y="0px" width="530px" height="263px" viewBox="0 0 530 263">
<defs>
<g id="Layer0_0_FILL">
<path fill="#FFA800" stroke="none" d="
M 262.65 362
Q 262.65 351.65 255.3 344.3 248 337 237.65 337
L -65 337
Q -75.35 337 -82.7 344.3 -90 351.65 -90 362
L -90 487
Q -90 497.35 -82.7 504.65 -75.35 512 -65 512
L 237.65 512
Q 248 512 255.3 504.65 262.65 497.35 262.65 487
L 262.65 362 Z"/>
</g>

<g id="Layer0_1_FILL">
<path fill="#FFFFFF" stroke="none" d="
M 194.75 169.05
Q 209.75 154.95 209.75 130.05 209.75 104.9 194.65 90.8 179.5 76.65 154.25 76.65 140.35 76.65 129.65 80.75 121.65 83.75 114.95 90 108.2 96.25 104.3 104.1 99.1 114.8 99.1 130.5 99.1 155.1 114.1 169.15 129.15 183.1 154.6 183.1 179.7 183.1 194.75 169.05
M 177.4 103.15
Q 185.95 111.85 185.95 129.55 185.95 147.45 177.15 156.45 168.3 165.35 154.5 165.35 140.7 165.35 131.75 156.35 122.8 147.3 122.8 129.8 122.8 112.05 131.55 103.3 140.25 94.45 154.5 94.45 168.75 94.45 177.4 103.15
M 305.55 83.7
Q 300.25 80.45 293.65 79.45 286.95 78.4 273.4 78.4
L 227.8 78.4 227.8 181.35 266.6 181.35 294.4 180.65
Q 303.6 179.75 309.9 175.8 316.15 171.8 319.8 165.2 323.35 158.55 323.35 151.5 323.35 142.6 317.75 136 312.15 129.4 301.75 126.65 309.1 123.65 313.5 117.6 317.75 111.55 317.75 104.35 317.75 97.65 314.25 92.3 310.75 86.9 305.55 83.7
M 250.8 95.55
L 283.75 95.9
Q 289.5 96.55 292.45 99.55 295.35 102.5 295.35 107.3 295.35 112.25 292 115.35 288.55 118.35 282.65 119
L 250.8 119.35 250.8 95.55
M 289.9 137.95
Q 294.55 139.45 297.05 142.65 299.55 145.9 299.55 150.55 299.55 156 296.35 159.3 293.1 162.55 287.95 163.4 284.6 164 272.15 164
L 250.8 164 250.8 136.5 269.4 136.5
Q 285.15 136.5 289.9 137.95
M 360.3 80.25
Q 350.95 83.85 346.05 90.7 341.1 97.5 341.1 105.4 341.1 117.6 351.6 126.1 359.05 132.15 377.6 136.25
L 396.05 140.75
Q 401.95 142.65 404.35 145.25 406.7 147.8 406.7 151.45 406.7 157.15 401.1 161.4 395.4 165.6 384.3 165.6 373.8 165.6 367.65 160.85 361.4 156.05 359.4 145.9
L 336.95 147.85
Q 339.2 165.15 350.8 174.2 362.4 183.2 384.05 183.2 398.9 183.2 408.9 179.45 418.85 175.65 424.3 167.95 429.75 160.2 429.75 151.35 429.75 141.6 425.25 135 420.65 128.35 412.6 124.55 404.55 120.7 387.7 117.1 370.9 113.55 366.55 110.25 363.1 107.65 363.1 104 363.1 100 366.75 97.6 372.45 93.85 382.5 93.85 392.25 93.85 397.15 97.4 401.95 100.8 403.45 108.75
L 426.5 107.85
Q 425.95 93.65 415.1 85.15 404.2 76.65 382.75 76.65 369.6 76.65 360.3 80.25 Z"/>
</g>
</defs>

<g transform="matrix( 1.50299072265625, 0, 0, 1.5028533935546875, 135.25,-506.45) ">
<use xlink:href="#Layer0_0_FILL"/>
</g>

<g transform="matrix( 1, 0, 0, 1, 0.6,1.6) ">
<use xlink:href="#Layer0_1_FILL"/>
</g>
</svg>
