
<svg xmlns="http://www.w3.org/2000/svg" version="1.1" xmlns:xlink="http://www.w3.org/1999/xlink" preserveAspectRatio="none" x="0px" y="0px" width="315px" height="328px" viewBox="0 0 315 328">
<defs>
<g id="Layer0_0_FILL">
<path fill="#FFA800" stroke="none" d="
M 797.85 415.15
Q 797.95 411.5 797.2 408.45 795.35 401.3 788.6 397.75 786.55 396.7 784.05 395.95
L 640.05 348.7 496.95 395.95
Q 482.75 400.15 483.15 415.15 484.3 443.7 488.35 469.45 497.6 528.4 521.8 572.45 538.75 603.35 563.05 626.95 595.1 658 640.05 676.3 685.9 658 717.95 626.95 742.25 603.35 759.2 572.45 783.4 528.4 792.65 469.45 796.7 443.7 797.85 415.15
M 549.05 558.6
Q 520.3 506.25 519 426.45
L 640 386.5 761 426.45
Q 758.35 590.25 640 638.45 605.45 624.4 580.8 600.5 562.1 582.35 549.05 558.6
M 640.05 410.4
L 542.95 442.45
Q 543.95 502.15 564.05 542.7
L 682.85 424.55 640.05 410.4
M 737.05 445.45
Q 737.1 443.95 737.1 442.45
L 595.4 584.8
Q 614.3 602.1 640.05 612.55 733.9 574.35 737.05 445.45 Z"/>
</g>
</defs>

<g transform="matrix( 1, 0, 0, 1, -483.15,-348.7) ">
<use xlink:href="#Layer0_0_FILL"/>
</g>
</svg>
